<svg version="1.1" xmlns="http://www.w3.org/2000/svg">
  <symbol id="brand">
      <title>brand</title>
      <g transform="matrix(1.3333333,0,0,-1.3333333,0,84.333333)">
       <g transform="scale(0.1)">
         <path d="m 4919.88,9.55469 h 193.73 V 19.9805 c -27.79,0.8711 -38.22,6.9531 -38.22,33.0117 V 302.336 c 19.98,41.695 42.56,65.152 70.37,65.152 33.88,0 46.03,-27.797 46.03,-76.449 V 52.9922 c 0,-26.0586 -11.29,-32.1406 -39.96,-33.0117 V 9.55469 h 194.61 V 19.9805 c -42.58,0.8711 -50.39,6.9531 -50.39,33.0117 V 297.117 c 0,78.196 -29.53,117.285 -92.95,117.285 -48.65,0 -95.56,-29.535 -129.45,-89.48 v 86.875 l -153.77,-6.078 v -10.426 c 42.56,-0.867 51.25,-18.242 51.25,-44.305 V 52.9922 c 0,-26.0586 -8.69,-32.1406 -51.25,-33.0117 V 9.55469 Z M 4693.65,232.832 c 2.6,108.594 23.46,165.07 65.15,165.07 45.18,0 62.56,-66.902 54.73,-165.07 h -119.88 z m 0,-14.769 h 225.02 c 6.07,108.597 -49.53,196.339 -155.51,196.339 -100.78,0 -178.11,-86.875 -178.11,-211.98 C 4585.05,81.6641 4655.43,0 4765.76,0 c 73.85,0 122.5,43.4375 152.91,105.121 l -11.31,6.078 c -25.2,-48.6482 -59.06,-77.3162 -102.5,-77.3162 -73.85,0 -111.21,72.1092 -111.21,173.7542 v 10.426 z M 4475.5,0 c 55.61,0 86.88,26.0664 109.48,87.7422 l -12.17,6.0859 c -16.51,-39.9648 -34.75,-57.3398 -56.49,-57.3398 -29.53,0 -42.55,19.1133 -42.55,69.5037 v 275.399 h 107.73 v 25.195 H 4473.77 V 552.539 L 4372.12,518.656 V 408.324 l -67.77,-16.508 v -11.293 h 66.04 V 112.07 C 4370.39,31.2734 4414.68,0 4475.5,0 Z m -455.05,0 h 11.28 l 27.8,31.2734 C 4079.51,14.7656 4135.99,0 4163.79,0 c 86.01,0 141.63,59.9453 141.63,134.656 0,71.242 -48.67,99.914 -118.18,122.5 -50.39,17.375 -88.61,33.883 -88.61,74.715 0,40.832 19.98,66.031 54.73,66.031 41.69,0 69.51,-37.359 116.42,-116.418 h 13.89 v 132.918 h -11.29 l -22.58,-27.797 c -19.12,15.637 -54.75,27.797 -90.35,27.797 -83.42,0 -139,-52.992 -139,-128.578 0,-68.633 42.55,-94.691 111.19,-119.015 66.03,-22.59 98.18,-41.707 98.18,-86.8832 0,-39.0977 -19.98,-63.4219 -58.22,-63.4219 -48.65,0 -85.14,37.3594 -137.27,130.3161 h -13.88 V 0 Z m -206.59,16.5039 c -53,0 -73.84,57.3438 -73.84,191.1331 0,133.789 14.76,190.265 67.75,190.265 53.01,0 73.85,-56.476 73.85,-190.265 0,-133.7893 -15.65,-191.1331 -67.76,-191.1331 z M 3811.25,0 c 107.73,0 181.58,84.2695 181.58,209.375 0,124.234 -70.37,205.027 -181.58,205.027 -108.6,0 -182.45,-84.265 -182.45,-208.504 C 3628.8,80.7969 3698.32,0 3811.25,0 Z m -429.17,289.301 v 309.285 h 43.44 c 86.88,0 112.93,-64.289 112.93,-151.164 0,-100.781 -24.31,-158.121 -114.66,-158.121 h -41.71 z M 3193.56,9.55469 h 269.32 V 19.9805 c -71.24,2.6093 -80.8,19.9804 -80.8,57.3398 V 272.793 h 46.91 c 167.68,0 227.63,86.012 227.63,174.629 0,95.562 -56.48,167.672 -225.02,167.672 h -238.04 v -11.293 c 61.68,-2.61 75.58,-20.852 75.58,-55.602 V 77.3203 c 0,-35.6211 -13.9,-52.9961 -75.58,-55.6015 V 9.55469 Z M 3018.07,217.191 h 191.14 v 35.622 H 3018.07 V 217.191 Z M 2698.8,0 h 11.29 l 27.81,31.2734 C 2757.88,14.7656 2814.35,0 2842.15,0 c 86.01,0 141.61,59.9453 141.61,134.656 0,71.242 -48.65,99.914 -118.15,122.5 -50.39,17.375 -88.62,33.883 -88.62,74.715 0,40.832 19.98,66.031 54.73,66.031 41.7,0 69.51,-37.359 116.42,-116.418 h 13.9 v 132.918 h -11.29 l -22.59,-27.797 c -19.11,15.637 -54.74,27.797 -90.35,27.797 -83.41,0 -139.01,-52.992 -139.01,-128.578 0,-68.633 42.57,-94.691 111.21,-119.015 66.02,-22.59 98.17,-41.707 98.17,-86.8832 0,-39.0977 -19.98,-63.4219 -58.21,-63.4219 -48.66,0 -85.14,37.3594 -137.27,130.3161 h -13.9 V 0 Z m -222.4,9.55469 h 205.03 V 19.9805 c -43.44,0.8711 -51.25,6.9531 -51.25,33.0117 V 632.473 l -158.99,-6.086 v -10.426 c 47.78,-1.738 55.6,-13.898 55.6,-43.438 V 52.9922 c 0,-26.0586 -8.69,-32.1406 -50.39,-33.0117 V 9.55469 Z M 2261.22,49.5234 c -32.15,0 -49.52,24.3243 -49.52,70.3716 0,59.941 19.11,85.136 101.65,102.511 V 85.1367 c -11.3,-20.8515 -31.28,-35.6133 -52.13,-35.6133 z M 2207.35,2.60938 c 46.05,0 80.8,26.92582 108.6,64.28512 h 3.47 c 6.96,-43.4375 30.41,-62.55466 74.72,-62.55466 33.01,0 54.73,12.16406 81.67,32.14846 l -5.22,9.5586 c -40.83,-20.8516 -53.86,-9.5586 -53.86,32.1406 V 285.824 c 0,89.489 -45.18,128.578 -138.14,128.578 -105.12,0 -159.85,-34.75 -159.85,-86.004 0,-28.671 21.72,-53.867 54.73,-53.867 35.62,0 54.73,22.586 54.73,54.739 0,20.847 -9.55,36.484 -23.45,50.382 11.29,12.164 31.27,18.25 52.99,18.25 39.1,0 55.61,-22.589 55.61,-87.75 V 237.18 c -26.07,-10.434 -109.47,-8.692 -163.33,-44.313 -31.28,-19.98 -48.66,-53.863 -48.66,-90.351 0,-48.6527 34.75,-99.90662 105.99,-99.90662 z M 1893.29,37.3555 c -54.73,0 -83.4,67.7655 -83.4,169.4145 0,120.757 29.54,191.132 75.58,191.132 29.54,0 47.79,-15.64 61.68,-40.836 V 69.5039 C 1932.39,50.3906 1918.49,37.3555 1893.29,37.3555 Z M 1849.85,0 c 43.44,0 74.72,21.7188 99.04,52.125 V 6.07813 l 153.78,3.47656 v 8.68751 c -42.57,0 -51.26,13.9023 -51.26,36.4883 V 632.473 l -158.99,-6.086 v -10.426 c 47.79,-1.738 54.73,-13.898 54.73,-43.438 V 397.902 c -20.85,10.422 -39.09,16.5 -70.37,16.5 -112.07,0 -176.35,-94.695 -176.35,-212.847 C 1700.43,86.875 1756.03,0 1849.85,0 Z m -569.64,9.55469 h 193.74 V 19.9805 c -27.81,0.8711 -38.23,6.9531 -38.23,33.0117 V 302.336 c 19.98,41.695 42.57,65.152 70.37,65.152 33.88,0 46.04,-27.797 46.04,-76.449 V 52.9922 c 0,-26.0586 -11.29,-32.1406 -39.96,-33.0117 V 9.55469 h 194.61 V 19.9805 c -42.58,0.8711 -50.39,6.9531 -50.39,33.0117 V 297.117 c 0,78.196 -29.54,117.285 -92.96,117.285 -48.65,0 -95.57,-29.535 -129.45,-89.48 v 86.875 l -153.77,-6.078 v -10.426 c 42.57,-0.867 51.26,-18.242 51.26,-44.305 V 52.9922 c 0,-26.0586 -8.69,-32.1406 -51.26,-33.0117 V 9.55469 Z m -216.58,0 h 205.03 V 19.9805 c -43.44,0.8711 -51.26,6.9531 -51.26,33.0117 V 632.473 l -158.99,-6.086 v -10.426 c 47.79,-1.738 55.6,-13.898 55.6,-43.438 V 52.9922 c 0,-26.0586 -8.68,-32.1406 -50.38,-33.0117 V 9.55469 Z M 804.484,491.73 c 33.012,0 56.469,26.059 56.469,60.809 0,35.621 -23.457,61.684 -56.469,61.684 -33.019,0 -56.472,-26.063 -56.472,-61.684 0,-34.75 23.453,-60.809 56.472,-60.809 z m 157.246,0 c 33.012,0 56.47,26.059 56.47,60.809 0,35.621 -23.458,61.684 -56.47,61.684 -33.011,0 -55.601,-26.063 -55.601,-61.684 0,-34.75 22.59,-60.809 55.601,-60.809 z M 887.016,16.5039 c -52.996,0 -73.844,57.3438 -73.844,191.1331 0,133.789 14.769,190.265 67.762,190.265 52.996,0 73.847,-56.476 73.847,-190.265 0,-133.7893 -15.64,-191.1331 -67.765,-191.1331 z M 884.41,0 c 107.731,0 181.57,84.2695 181.57,209.375 0,124.234 -70.371,205.027 -181.57,205.027 -108.597,0 -182.445,-84.265 -182.445,-208.504 C 701.965,80.7969 771.465,0 884.41,0 Z M 0,9.55469 H 199.82 V 21.7188 C 125.102,33.0117 108.598,69.5039 108.598,155.508 v 401.379 h 6.082 L 304.074,7.81641 h 33.879 L 509.973,556.887 h 5.215 V 77.3203 c 0,-37.3594 -18.25,-52.9961 -70.372,-55.6015 V 9.55469 H 702.84 V 21.7188 c -62.551,2.6054 -75.582,19.9804 -75.582,55.6015 V 548.199 c 0,34.75 13.031,52.992 75.582,55.602 v 11.293 H 506.496 L 366.621,166.809 h -4.34 L 212.852,615.094 H 0 v -11.293 c 64.2891,-1.738 87.7461,-43.438 87.7461,-95.567 V 155.508 C 87.7461,69.5039 70.3711,33.0117 0,21.7188 v -12.16411 0" />
       </g>
     </g>
   </symbol>
 </svg>
