<svg xmlns="http://www.w3.org/2000/svg" style="display: none;">
    <symbol id="icon-user" viewBox="0 0 24 24" fill="none" stroke="currentColor" stroke-width="2" stroke-linecap="round" stroke-linejoin="round">
        <title>user</title>
        <path d="M20 21v-2a4 4 0 0 0-4-4H8a4 4 0 0 0-4 4v2"></path>
        <circle cx="12" cy="7" r="4"></circle>
    </symbol>
    <symbol id="icon-newspaper" width="24" height="24" viewBox="0 0 24 24" fill="currentColor">
        <title>newspaper</title>
        <path d="M21 6v-3h-21v16.5c0 0.828 0.672 1.5 1.5 1.5h20.25c1.243 0 2.25-1.007 2.25-2.25v-12.75h-3zM19.5 19.5h-18v-15h18v15zM3 7.5h15v1.5h-15zM12 10.5h6v1.5h-6zM12 13.5h6v1.5h-6zM12 16.5h4.5v1.5h-4.5zM3 10.5h7.5v7.5h-7.5z"></path>
    </symbol>
    <symbol id="icon-logout" width="24" height="24" viewBox="0 0 24 24" fill="none" stroke="currentColor" stroke-width="2" stroke-linecap="round" stroke-linejoin="round">
        <title>logout</title>
        <path d="M9 21H5a2 2 0 0 1-2-2V5a2 2 0 0 1 2-2h4"></path>
        <polyline points="16 17 21 12 16 7"></polyline>
        <line x1="21" y1="12" x2="9" y2="12"></line>
    </symbol>
    <symbol id="icon-puzzle" viewBox="0 0 24 21" fill="none" stroke="currentColor" stroke-width="1" stroke-linecap="round" stroke-linejoin="round">
        <title>puzzle</title>
        <path id="path248" d="M 24,10.519483 H 0 V 6.7012932 H 24 Z M 0.46753,10.051943 H 23.53247 V 7.1688332 H 0.46753 Z" />
        <rect height="13.480519" width="0.46753246" y="6.9350662" x="3.350647" />
        <rect height="13.480519" width="0.46753246" y="6.9350662" x="6.7012939" />
        <rect height="3.4285715" width="0.46753246" y="6.9350662" x="10.129868" />
        <rect height="16.831169" width="0.46753246" y="0.23376465" x="13.480515" />
        <rect height="16.831169" width="0.46753246" y="0.23376465" x="16.831161" />
        <rect height="3.3506494" width="0.46753246" y="6.9350662" x="20.181824" />
        <rect height="0.46753246" width="3.3506494" y="3.350647" x="13.714279" />
        <rect height="0.46753246" width="3.8181818" y="0" x="13.480515" />
        <rect height="0.46753246" width="3.8181818" y="13.480522" x="13.480515" />
        <rect height="0.46753246" width="3.8181818" y="16.753242" x="13.480515" />
        <rect height="0.46753246" width="3.8181818" y="20.103889" x="3.350647" />
        <rect height="0.46753246" width="3.8181818" y="16.753242" x="3.350647" />
        <rect height="0.46753246" width="3.8181818" y="13.402596" x="3.350647" />
    </symbol>
    <symbol id="icon-offer" width="24" height="24" viewBox="0 0 24 24" fill="none" stroke="currentColor" stroke-width="2" stroke-linecap="round" stroke-linejoin="round">
        <title>offer</title>
        <polyline points="20 12 20 22 4 22 4 12"></polyline>
        <rect x="2" y="7" width="20" height="5"></rect>
        <line x1="12" y1="22" x2="12" y2="7"></line>
        <path d="M12 7H7.5a2.5 2.5 0 0 1 0-5C11 2 12 7 12 7z"></path>
        <path d="M12 7h4.5a2.5 2.5 0 0 0 0-5C13 2 12 7 12 7z"></path>
    </symbol>
    <symbol id="icon-arrow-down" viewBox="0 0 16 9">
        <title>arrow</title>
        <path d="M7.248 8.505L.4 1.85A1.062 1.062 0 0 1 .4.317a1.138 1.138 0 0 1 1.577 0l6.06 5.889L14.095.318a1.139 1.139 0 0 1 1.577 0 1.06 1.06 0 0 1 0 1.532L8.825 8.505a1.128 1.128 0 0 1-.789.317 1.13 1.13 0 0 1-.788-.317z"/>
    </symbol>
    <symbol id="icon-comments" width="24" height="24" viewBox="0 0 24 24" fill="none" stroke="currentColor" stroke-width="2" stroke-linecap="round" stroke-linejoin="round">
        <title>comments</title>
        <path d="M21 15a2 2 0 0 1-2 2H7l-4 4V5a2 2 0 0 1 2-2h14a2 2 0 0 1 2 2z"></path>
    </symbol>
    <symbol id="icon-search" width="24" height="24" viewBox="0 0 24 24" fill="none" stroke="currentColor" stroke-width="2" stroke-linecap="round" stroke-linejoin="round">
        <title>Sök</title>
        <circle cx="11" cy="11" r="8"></circle>
        <line x1="21" y1="21" x2="16.65" y2="16.65"></line>
    </symbol>
    <symbol id="icon-location" width="23" height="21" viewBox="0 0 24 24" fill="currentColor" stroke="none">
        <title>Superlokalt</title>
        <path d="M12 0c-4.142 0-7.5 3.358-7.5 7.5 0 7.5 7.5 16.5 7.5 16.5s7.5-9 7.5-16.5c0-4.142-3.358-7.5-7.5-7.5zM12 12c-2.485 0-4.5-2.015-4.5-4.5s2.015-4.5 4.5-4.5 4.5 2.015 4.5 4.5-2.015 4.5-4.5 4.5z"></path>
    </symbol>
    <symbol id="icon-clock" viewBox="0 0 24 24" fill="none" stroke="currentColor" stroke-width="2" stroke-linecap="round" stroke-linejoin="round">
        <title>clock</title>
        <circle cx="12" cy="12" r="10"></circle>
        <polyline points="12 6 12 12 16 14"></polyline>
    </symbol>
    <symbol id="icon-play" width="24" height="24" viewBox="0 0 24 24" fill="currentColor" stroke="currentColor" stroke-width="2" stroke-linecap="round" stroke-linejoin="round">
        <title>play</title>
        <polygon points="5 3 19 12 5 21 5 3"></polygon>
    </symbol>
    <symbol id="icon-twitter" width="16" height="16" viewBox="0 0 32 32">
        <title>twitter</title>
        <path d="M32 7.075c-1.175 0.525-2.444 0.875-3.769 1.031 1.356-0.813 2.394-2.1 2.887-3.631-1.269 0.75-2.675 1.3-4.169 1.594-1.2-1.275-2.906-2.069-4.794-2.069-3.625 0-6.563 2.938-6.563 6.563 0 0.512 0.056 1.012 0.169 1.494-5.456-0.275-10.294-2.888-13.531-6.862-0.563 0.969-0.887 2.1-0.887 3.3 0 2.275 1.156 4.287 2.919 5.463-1.075-0.031-2.087-0.331-2.975-0.819 0 0.025 0 0.056 0 0.081 0 3.181 2.263 5.838 5.269 6.437-0.55 0.15-1.131 0.231-1.731 0.231-0.425 0-0.831-0.044-1.237-0.119 0.838 2.606 3.263 4.506 6.131 4.563-2.25 1.762-5.075 2.813-8.156 2.813-0.531 0-1.050-0.031-1.569-0.094 2.913 1.869 6.362 2.95 10.069 2.95 12.075 0 18.681-10.006 18.681-18.681 0-0.287-0.006-0.569-0.019-0.85 1.281-0.919 2.394-2.075 3.275-3.394z"></path>
    </symbol>
    <symbol id="icon-facebook" width="16" height="16" viewBox="0 0 32 32">
        <title>facebook</title>
        <path d="M19 6h5v-6h-5c-3.86 0-7 3.14-7 7v3h-4v6h4v16h6v-16h5l1-6h-6v-3c0-0.542 0.458-1 1-1z"></path>
    </symbol>
    <symbol id="icon-instagram" width="16" height="16" viewBox="0 0 24 24" fill="none" stroke="currentColor" stroke-width="2" stroke-linecap="round" stroke-linejoin="round">
        <title>instagram</title>
        <rect x="2" y="2" width="20" height="20" rx="5" ry="5"></rect>
        <path d="M16 11.37A4 4 0 1 1 12.63 8 4 4 0 0 1 16 11.37z"></path>
        <line x1="17.5" y1="6.5" x2="17.5" y2="6.5"></line>
    </symbol>

    <symbol id="icon-copy" viewBox="0 0 24 24" fill="none" stroke="currentColor" stroke-width="2" stroke-linecap="round" stroke-linejoin="round">
        <path d="M10 13a5 5 0 0 0 7.54.54l3-3a5 5 0 0 0-7.07-7.07l-1.72 1.71"></path>
        <path d="M14 11a5 5 0 0 0-7.54-.54l-3 3a5 5 0 0 0 7.07 7.07l1.71-1.71"></path>
    </symbol>

    <symbol id="icon-bell" viewBox="0 0 32 32">
        <title>Notifikationer</title>
        <path d="M30.7,23.9c-2.9-2.5-5.5-6-5.5-14.7c-0.2-5.1-4.4-9.1-9.5-8.9c-4.8,0.2-8.7,4-8.9,8.9c0,8.8-2.7,12.3-5.5,14.7
                C0.5,24.6,0,25.6,0,26.6c0,0.6,0.5,1,1,1H11c0.6,2.8,3.3,4.5,6.1,4c2-0.4,3.5-2,4-4h9.9c0.6,0,1-0.5,1-1
                C32,25.6,31.5,24.6,30.7,23.9L30.7,23.9z M16,29.7c-1.3,0-2.4-0.8-2.8-2h5.7C18.4,28.9,17.3,29.7,16,29.7L16,29.7z M2.5,25.6
                l0.1-0.1C7,21.7,8.8,16.8,8.8,9.2c0-3.9,3.2-7.1,7.1-7.1S23,5.2,23,9.2c0,7.6,1.9,12.5,6.2,16.3l0.1,0.1H2.5z"/>
    </symbol>

    <symbol id="icon-bell-off" viewBox="0 0 500 500">
        <title>Notifikationer av</title>
        <path class="cls-1" style="fill:#aab9be;"
              d="M414.6,345.74c-32.11-27.77-61.84-67-61.84-164.79a102.77,102.77,0,0,0-205.53,0c0,97.92-29.7,137.06-61.85,164.82a40.7,40.7,0,0,0-14,30.67A11.7,11.7,0,0,0,83,388.13H194a57.22,57.22,0,0,0,112,0H417a11.7,11.7,0,0,0,11.69-11.69,40.47,40.47,0,0,0-14-30.7ZM250,410.3a33.93,33.93,0,0,1-31.77-22.17h63.54A33.93,33.93,0,0,1,250,410.3ZM99.34,364.75a16.86,16.86,0,0,1,1.35-1.32c49-42.31,69.92-96.88,69.92-182.48a79.39,79.39,0,0,1,158.77,0c0,85.52,20.92,140.09,69.95,182.49a16.75,16.75,0,0,1,1.35,1.31Zm0,0"/>
        <path class="cls-2" style="fill:#fff;"
              d="M384.67,463.19a18.93,18.93,0,0,1-16.42-9.48L124.5,31.53a18.93,18.93,0,0,1,32.8-18.92L401.05,434.79a18.94,18.94,0,0,1-16.38,28.4Z"/>
        <path class="cls-1" style="fill:#aab9be;"
              d="M384.65,455.39a11.07,11.07,0,0,1-9.63-5.57L131.27,27.64A11.13,11.13,0,1,1,150.54,16.5L394.29,438.69a11.13,11.13,0,0,1-9.64,16.7Z"/>
    </symbol>

    <symbol id="icon-star" fill="currentColor" viewBox="0 0 30 30">
        <title>Notifikationer</title>
        <path d="M8.18 26.58a1.12 1.12 0 01-.63-.2 1.08 1.08 0 01-.43-1.05l1.21-7-5.14-5a1.08 1.08 0 01-.27-1.09 1.06 1.06 0 01.86-.72l7.1-1L14.05 4a1 1 0 01.95-.58A1 1 0 0116 4l3.18 6.43 7.09 1a1.07 1.07 0 01.59 1.82l-5.13 5 1.2 7a1.08 1.08 0 01-1.57 1.14L15 23.14l-6.31 3.32a1.13 1.13 0 01-.51.12zM7.9 25zm7.1-3.6a1.13 1.13 0 01.5.13l5.5 2.84-1-6.12a1.08 1.08 0 01.3-.95l4.4-4.3-6.16-.9a1 1 0 01-.78-.57L15 5.92l-2.75 5.58a1 1 0 01-.79.57L5.31 13l4.44 4.3a1.08 1.08 0 01.31.95L9 24.37l5.5-2.89a1 1 0 01.5-.13zm-.3 1.6zm.61 0zm-6.75-4.48zM8.38 18zM4 13.16zm21.94 0zm-.35-1.08z" />
    </symbol>

    <symbol id="icon-star-with-dot" viewBox="0 0 30 30">
        <path d="M8.18,26.58a1.12,1.12,0,0,1-.63-.2,1.08,1.08,0,0,1-.43-1.05l1.21-7-5.14-5a1.08,1.08,0,0,1-.27-1.09,1.06,1.06,0,0,1,.86-.72l7.1-1L14.05,4A1,1,0,0,1,15,3.42h0A1,1,0,0,1,16,4l3.18,6.43,7.09,1a1.07,1.07,0,0,1,.59,1.82l-5.13,5,1.2,7a1.08,1.08,0,0,1-1.57,1.14L15,23.14,8.69,26.46A1.13,1.13,0,0,1,8.18,26.58ZM7.9,25h0Zm7.1-3.6a1.13,1.13,0,0,1,.5.13L21,24.37,20,18.25a1.08,1.08,0,0,1,.3-.95L24.7,13l-6.16-.9a1,1,0,0,1-.78-.57L15,5.92,12.25,11.5a1,1,0,0,1-.79.57L5.31,13,9.75,17.3a1.08,1.08,0,0,1,.31.95L9,24.37l5.5-2.89A1,1,0,0,1,15,21.35ZM14.7,23h0Zm.61,0h0ZM8.56,18.52h0ZM8.38,18h0ZM4,13.16H4Zm21.94,0Zm-.35-1.08Z"/>
        <circle fill="#e40000" cx="24.92" cy="11.31" r="4.23"/>
    </symbol>

    <symbol id="symbol-stampen" viewBox="0 0 405.493 149.688" fill="currentColor">
        <title>stampen</title>
        <path d="M26.281,66.449c-9.726,0-18.987-3.498-26.086-9.842L0,56.432l8.278-9.906l0.199,0.168
            c6.083,5.019,11.817,7.361,18.066,7.361c5.356,0,8.547-2.035,8.547-5.444v-0.174c0-2.851-1.452-6.143-12.249-8.904
            C10.311,36.327,2.54,31.899,2.54,19.765v-0.174C2.54,8.425,12.074,0,24.713,0c8.693,0,16.381,2.63,22.846,7.821l0.195,0.154
            l-7.27,10.549l-0.22-0.151c-5.792-4.017-10.933-5.971-15.726-5.971c-3.232,0-7.813,2.202-8.024,6.336
            c-0.125,2.469,1.423,4.241,4.713,5.409l1.261,0.446c2.266,0.811,4.519,1.614,6.797,2.45c0.734,0.27,1.448,0.523,2.141,0.778
            c2.457,0.88,4.573,1.641,6.473,2.55c7.776,3.738,11.24,8.906,11.24,16.749v0.189C49.14,59.11,40.38,66.449,26.281,66.449"/>
        <polygon points="215.098,64.921 215.098,24.846 197.966,50.849 197.323,50.849 180.365,25.109 180.365,64.921
            166.39,64.921 166.39,2.05 181.58,2.05 197.825,28.005 214.061,2.05 229.425,2.05 229.425,64.921 "/>
        <polygon points="70.193,64.921 70.193,14.734 52.733,14.734 52.733,2.05 102.113,2.05 102.113,14.734 84.483,14.734
            84.483,64.921 "/>
        <path d="M145.021,64.921l-5.373-13.213h-23.892l-5.208,13.213h-15.75l27.215-62.87h11.722l27.394,62.87H145.021z
            M134.756,39.557l-7.278-18.373l-7.195,18.373H134.756z"/>
        <path d="M241.794,64.921V2.052h23.456c15.916,0,23.986,6.462,23.986,19.197c0,13.031-7.643,19.375-23.368,19.375h-9.788
            v24.298H241.794z M264.985,28.462c3.522,0,9.431-0.934,9.431-7.213c0-6.311-6.589-7.046-11.547-7.046h-6.788v14.259H264.985z"/>
        <polygon points="297.167,64.921 297.167,2.05 340.116,2.05 340.116,15.265 311.453,15.265 311.453,26.35 338.526,26.35
            338.526,39.563 311.453,39.563 311.453,51.71 341.701,51.71 341.701,64.921 "/>
        <polygon points="389.562,64.921 365.334,26.333 365.334,64.921 351.356,64.921 351.356,2.05 366.135,2.05
            389.562,38.765 389.562,2.05 403.881,2.05 403.881,64.921 "/>
        <path d="M395.809,130.361c5.365,0,9.684,4.298,9.684,9.659c0,5.353-4.318,9.668-9.684,9.668s-9.676-4.315-9.676-9.668
            C386.133,134.659,390.444,130.361,395.809,130.361"/>
        <polygon points="144.112,148.651 144.112,108.577 126.976,134.584 126.337,134.584 109.375,108.844 109.375,148.651
            95.4,148.651 95.4,85.788 110.595,85.788 126.839,111.739 143.075,85.788 158.436,85.788 158.436,148.651 "/>
        <polygon points="170.614,148.651 170.614,85.788 213.559,85.788 213.559,98.997 184.9,98.997 184.9,110.085
            211.969,110.085 211.969,123.298 184.9,123.298 184.9,135.444 215.145,135.444 215.145,148.651 "/>
        <path d="M226.157,148.651V85.788h20.9c10.795,0,19.846,2.477,26.178,7.168c7.322,5.438,11.037,13.659,11.037,24.443
            c0,9.556-3.686,17.601-10.668,23.261c-6.357,5.153-15.125,7.991-24.693,7.991H226.157z M247.327,135.444
            c14.684,0,22.127-6.312,22.127-18.751c0-13.047-10.93-17.696-21.16-17.696h-7.848v36.447H247.327z"/>
        <rect x="293.266" y="85.79" width="14.291" height="62.865"/>
        <path d="M365.5,148.651l-5.381-13.203h-23.891l-5.203,13.203h-15.752l27.215-62.863h11.723l27.393,62.863H365.5z
            M355.237,123.291l-7.283-18.375l-7.195,18.375H355.237z"/>
    </symbol>
    <symbol id="icon-pencil" width="32" height="32" fill="currentColor" viewBox="0 0 32 32">
        <title>
            pencil
        </title>
        <path d="M27 0c2.761 0 5 2.239 5 5 0 1.126-0.372 2.164-1 3l-2 2-7-7 2-2c0.836-0.628 1.874-1 3-1zM2 23l-2 9 9-2 18.5-18.5-7-7-18.5 18.5zM22.362 11.362l-14 14-1.724-1.724 14-14 1.724 1.724z"/>
    </symbol>
    <symbol id="icon-users" fill="currentColor" viewBox="0 0 36 32">
        <title>users</title>
        <path d="M24 24.082v-1.649c2.203-1.241 4-4.337 4-7.432 0-4.971 0-9-6-9s-6 4.029-6 9c0 3.096 1.797 6.191 4 7.432v1.649c-6.784 0.555-12 3.888-12 7.918h28c0-4.030-5.216-7.364-12-7.918z"/>
        <path d="M10.225 24.854c1.728-1.13 3.877-1.989 6.243-2.513-0.47-0.556-0.897-1.176-1.265-1.844-0.95-1.726-1.453-3.627-1.453-5.497 0-2.689 0-5.228 0.956-7.305 0.928-2.016 2.598-3.265 4.976-3.734-0.529-2.39-1.936-3.961-5.682-3.961-6 0-6 4.029-6 9 0 3.096 1.797 6.191 4 7.432v1.649c-6.784 0.555-12 3.888-12 7.918h8.719c0.454-0.403 0.956-0.787 1.506-1.146z"/>
    </symbol>
    <symbol id="icon-users-outlined" width="32" height="32" fill="currentColor" viewBox="0 0 32 32">
        <title>users outlined</title>
        <path d="M18 21v-2c0-1.38-0.561-2.632-1.464-3.536s-2.156-1.464-3.536-1.464h-8c-1.38 0-2.632 0.561-3.536 1.464s-1.464 2.156-1.464 3.536v2c0 0.552 0.448 1 1 1s1-0.448 1-1v-2c0-0.829 0.335-1.577 0.879-2.121s1.292-0.879 2.121-0.879h8c0.829 0 1.577 0.335 2.121 0.879s0.879 1.292 0.879 2.121v2c0 0.552 0.448 1 1 1s1-0.448 1-1zM14 7c0-1.38-0.561-2.632-1.464-3.536s-2.156-1.464-3.536-1.464-2.632 0.561-3.536 1.464-1.464 2.156-1.464 3.536 0.561 2.632 1.464 3.536 2.156 1.464 3.536 1.464 2.632-0.561 3.536-1.464 1.464-2.156 1.464-3.536zM12 7c0 0.829-0.335 1.577-0.879 2.121s-1.292 0.879-2.121 0.879-1.577-0.335-2.121-0.879-0.879-1.292-0.879-2.121 0.335-1.577 0.879-2.121 1.292-0.879 2.121-0.879 1.577 0.335 2.121 0.879 0.879 1.292 0.879 2.121zM24 21v-2c-0.001-1.245-0.457-2.385-1.215-3.261-0.652-0.753-1.528-1.311-2.529-1.576-0.534-0.141-1.081 0.177-1.222 0.711s0.177 1.081 0.711 1.222c0.607 0.161 1.136 0.498 1.528 0.952 0.454 0.526 0.726 1.206 0.727 1.952v2c0 0.552 0.448 1 1 1s1-0.448 1-1zM15.752 4.099c0.803 0.206 1.445 0.715 1.837 1.377s0.531 1.47 0.325 2.273c-0.176 0.688-0.575 1.256-1.105 1.652-0.314 0.235-0.675 0.409-1.063 0.511-0.534 0.14-0.854 0.687-0.713 1.221s0.687 0.854 1.221 0.713c0.637-0.167 1.232-0.455 1.752-0.844 0.884-0.66 1.552-1.613 1.845-2.758 0.342-1.337 0.11-2.689-0.542-3.788s-1.725-1.953-3.062-2.296c-0.535-0.137-1.080 0.186-1.217 0.721s0.186 1.080 0.721 1.217z"></path>
    </symbol>
    <symbol id="icon-clock" width="32" height="32" fill="currentColor" viewBox="0 0 32 32">
        <title>clock</title>
        <path d="M20.586 23.414l-6.586-6.586v-8.828h4v7.172l5.414 5.414zM16 0c-8.837 0-16 7.163-16 16s7.163 16 16 16 16-7.163 16-16-7.163-16-16-16zM16 28c-6.627 0-12-5.373-12-12s5.373-12 12-12c6.627 0 12 5.373 12 12s-5.373 12-12 12z"/>
    </symbol>
    <symbol id="icon-lock" width="24" height="24" viewBox="0 0 24 24" fill="none" stroke="currentColor" stroke-width="2" stroke-linecap="round" stroke-linejoin="round">
        <title>lock</title>
        <rect x="3" y="11" width="18" height="11" rx="2" ry="2"></rect>
        <path d="M7 11V7a5 5 0 0 1 10 0v4"></path>
    </symbol>
    <symbol id="icon-database" width="24" height="24" fill="none" stroke-width="2" stroke-linecap="round" stroke-linejoin="round" stroke="currentColor" viewBox="0 0 24 24">
        <title>database</title>
        <ellipse cx="12" cy="5" rx="9" ry="3"></ellipse>
        <path d="M21 12c0 1.66-4 3-9 3s-9-1.34-9-3"></path>
        <path d="M3 5v14c0 1.66 4 3 9 3s9-1.34 9-3V5"></path>
    </symbol>
    <symbol id="icon-checkbox-checked" fill="currentColor" viewBox="0 0 32 32">
        <title>checkbox-checked</title>
        <path d="M28 0h-24c-2.2 0-4 1.8-4 4v24c0 2.2 1.8 4 4 4h24c2.2 0 4-1.8 4-4v-24c0-2.2-1.8-4-4-4zM14 24.828l-7.414-7.414 2.828-2.828 4.586 4.586 9.586-9.586 2.828 2.828-12.414 12.414z"></path>
    </symbol>
    <symbol id="icon-checkbox-unchecked" fill="currentColor" viewBox="0 0 32 32">
        <title>checkbox-unchecked</title>
        <path d="M28 0h-24c-2.2 0-4 1.8-4 4v24c0 2.2 1.8 4 4 4h24c2.2 0 4-1.8 4-4v-24c0-2.2-1.8-4-4-4zM28 28h-24v-24h24v24z"></path>
    </symbol>
    <symbol id="icon-like" fill="currentColor" viewBox="0 0 32 32">
        <title>like</title>
        <path d="M29.164 10.472c-1.25-0.328-4.189-0.324-8.488-0.438 0.203-0.938 0.25-1.784 0.25-3.286 0-3.588-2.614-6.748-4.926-6.748-1.633 0-2.979 1.335-3 2.977-0.022 2.014-0.645 5.492-4 7.256-0.246 0.13-0.95 0.477-1.053 0.522l0.053 0.045c-0.525-0.453-1.253-0.8-2-0.8h-3c-1.654 0-3 1.346-3 3v16c0 1.654 1.346 3 3 3h3c1.19 0 2.186-0.719 2.668-1.727 0.012 0.004 0.033 0.010 0.047 0.012 0.066 0.018 0.144 0.037 0.239 0.062 0.018 0.005 0.027 0.007 0.046 0.012 0.576 0.143 1.685 0.408 4.055 0.953 0.508 0.116 3.192 0.688 5.972 0.688h5.467c1.666 0 2.867-0.641 3.582-1.928 0.010-0.020 0.24-0.469 0.428-1.076 0.141-0.457 0.193-1.104 0.023-1.76 1.074-0.738 1.42-1.854 1.645-2.58 0.377-1.191 0.264-2.086 0.002-2.727 0.604-0.57 1.119-1.439 1.336-2.766 0.135-0.822-0.010-1.668-0.389-2.372 0.566-0.636 0.824-1.436 0.854-2.176l0.012-0.209c0.007-0.131 0.013-0.212 0.013-0.5 0-1.263-0.875-2.874-2.836-3.434zM7 29c0 0.553-0.447 1-1 1h-3c-0.553 0-1-0.447-1-1v-16c0-0.553 0.447-1 1-1h3c0.553 0 1 0.447 1 1v16zM29.977 14.535c-0.020 0.494-0.227 1.465-1.977 1.465-1.5 0-2 0-2 0-0.277 0-0.5 0.224-0.5 0.5s0.223 0.5 0.5 0.5c0 0 0.438 0 1.938 0s1.697 1.244 1.6 1.844c-0.124 0.746-0.474 2.156-2.163 2.156-1.687 0-2.375 0-2.375 0-0.277 0-0.5 0.223-0.5 0.5 0 0.275 0.223 0.5 0.5 0.5 0 0 1.188 0 1.969 0 1.688 0 1.539 1.287 1.297 2.055-0.319 1.009-0.514 1.945-2.641 1.945-0.719 0-1.631 0-1.631 0-0.277 0-0.5 0.223-0.5 0.5 0 0.275 0.223 0.5 0.5 0.5 0 0 0.693 0 1.568 0 1.094 0 1.145 1.035 1.031 1.406-0.125 0.406-0.273 0.707-0.279 0.721-0.302 0.545-0.789 0.873-1.82 0.873h-5.467c-2.746 0-5.47-0.623-5.54-0.639-4.154-0.957-4.373-1.031-4.634-1.105 0 0-0.846-0.143-0.846-0.881l-0.007-13.812c0-0.469 0.299-0.893 0.794-1.042 0.062-0.024 0.146-0.050 0.206-0.075 4.568-1.892 5.959-6.040 6-9.446 0.006-0.479 0.375-1 1-1 1.057 0 2.926 2.122 2.926 4.748 0 2.371-0.096 2.781-0.926 5.252 10 0 9.93 0.144 10.812 0.375 1.094 0.313 1.188 1.219 1.188 1.531 0 0.343-0.010 0.293-0.023 0.629zM4.5 26c-0.828 0-1.5 0.672-1.5 1.5s0.672 1.5 1.5 1.5 1.5-0.672 1.5-1.5-0.672-1.5-1.5-1.5zM4.5 28c-0.275 0-0.5-0.225-0.5-0.5s0.225-0.5 0.5-0.5 0.5 0.225 0.5 0.5-0.225 0.5-0.5 0.5z"></path>
    </symbol>
    <symbol id="icon-check-circle" viewBox="0 0 24 24">
        <title>check_circle</title>
        <path d="M9.984 17.016l9-9-1.406-1.453-7.594 7.594-3.563-3.563-1.406 1.406zM12 2.016c5.531 0 9.984 4.453 9.984 9.984s-4.453 9.984-9.984 9.984-9.984-4.453-9.984-9.984 4.453-9.984 9.984-9.984z"></path>
    </symbol>
    <symbol id="icon-exclamation-circle" viewBox="0 0 20 20">
        <title>exclamation-solid</title>
        <path d="M2.93 17.070c-1.884-1.821-3.053-4.37-3.053-7.193 0-5.523 4.477-10 10-10 2.823 0 5.372 1.169 7.19 3.050l0.003 0.003c1.737 1.796 2.807 4.247 2.807 6.947 0 5.523-4.477 10-10 10-2.7 0-5.151-1.070-6.95-2.81l0.003 0.003zM9 5v6h2v-6h-2zM9 13v2h2v-2h-2z"></path>
    </symbol>
    <symbol id="icon-settings" width="24" height="24" fill="currentColor" viewBox="0 0 24 24">
        <path d="M21.886 14.303c-1.259-2.181-0.502-4.976 1.691-6.246l-2.358-4.085c-0.674 0.395-1.457 0.622-2.293 0.622-2.52 0-4.563-2.057-4.563-4.594h-4.717c0.006 0.783-0.189 1.577-0.608 2.303-1.259 2.181-4.058 2.923-6.255 1.658l-2.358 4.085c0.679 0.386 1.267 0.951 1.685 1.675 1.257 2.178 0.504 4.967-1.681 6.24l2.358 4.085c0.671-0.391 1.451-0.615 2.283-0.615 2.512 0 4.55 2.044 4.563 4.569h4.717c-0.002-0.775 0.194-1.56 0.609-2.279 1.257-2.177 4.049-2.92 6.244-1.664l2.358-4.085c-0.675-0.386-1.258-0.949-1.674-1.669zM12 16.859c-2.684 0-4.859-2.176-4.859-4.859s2.176-4.859 4.859-4.859c2.684 0 4.859 2.176 4.859 4.859s-2.176 4.859-4.859 4.859z"></path>
    </symbol>
    <symbol id="icon-share" viewBox="0 0 30 30">
        <path class="cls-1" style="fill:#fff;" d="M15,22.77a.8.8,0,0,1-.8-.8V1.34a.8.8,0,0,1,1.6,0V22A.8.8,0,0,1,15,22.77Z"/>
        <path class="cls-1" style="fill:#fff;" d="M9.52,7.31A.81.81,0,0,1,9,7.07.8.8,0,0,1,9,5.94L14.42.48a.79.79,0,0,1,1.13,0,.8.8,0,0,1,0,1.13L10.09,7.07A.8.8,0,0,1,9.52,7.31Z"/>
        <path class="cls-1" style="fill:#fff;" d="M20.48,7.33a.78.78,0,0,1-.57-.23L14.42,1.61A.8.8,0,1,1,15.56.48L21.05,6a.8.8,0,0,1-.57,1.36Z"/>
        <path class="cls-1" style="fill:#fff;" d="M25.16,29.76H4.84a2.41,2.41,0,0,1-2.4-2.41V13.55a2.41,2.41,0,0,1,2.4-2.4h5.78a.8.8,0,0,1,0,1.6H4.84a.8.8,0,0,0-.8.8v13.8a.8.8,0,0,0,.8.8H25.16a.8.8,0,0,0,.8-.8V13.55a.8.8,0,0,0-.8-.8H19.29a.8.8,0,0,1,0-1.6h5.87a2.41,2.41,0,0,1,2.4,2.4v13.8A2.41,2.41,0,0,1,25.16,29.76Z"/>
    </symbol>
    <symbol id="icon-chat" viewBox="0 0 24 24">
        <path d="M18 8.016v-2.016h-12v2.016h12zM14.016 14.016v-2.016h-8.016v2.016h8.016zM6 9v2.016h12v-2.016h-12zM20.016 2.016q0.797 0 1.383 0.586t0.586 1.383v12q0 0.797-0.586 1.406t-1.383 0.609h-14.016l-3.984 3.984v-18q0-0.797 0.586-1.383t1.383-0.586h16.031z"></path>
    </symbol>
    <symbol id="icon-phone" viewBox="0 0 24 24">
        <path d="M15 12q0-1.219-0.891-2.109t-2.109-0.891v-2.016q2.063 0 3.539 1.477t1.477 3.539h-2.016zM18.984 12q0-2.906-2.039-4.945t-4.945-2.039v-2.016q3.75 0 6.375 2.625t2.625 6.375h-2.016zM20.016 15.516q0.422 0 0.703 0.281t0.281 0.703v3.516q0 0.422-0.281 0.703t-0.703 0.281q-7.031 0-12.023-4.992t-4.992-12.023q0-0.422 0.281-0.703t0.703-0.281h3.516q0.422 0 0.703 0.281t0.281 0.703v0.047q0 1.922 0.563 3.516 0.094 0.188 0.094 0.328 0 0.469-0.328 0.703l-2.203 2.203q0.938 1.781 2.883 3.727t3.727 2.883l2.203-2.203q0.328-0.328 0.703-0.328 0.141 0 0.328 0.094 1.688 0.563 3.563 0.563z"></path>
    </symbol>
    <symbol id="icon-phone-puzzle" fill="currentColor" viewBox="0 0 44 44">
        <title>phone</title>
        <defs>
            <style>.cls-1{fill:#00c389;}.cls-2{opacity:0.17;}.cls-3{fill:#fff;}
            </style>
        </defs>
        <circle fill="#00c389" cx="21.92" cy="22.13" r="21.48" transform="translate(-1.02 1.06) rotate(-2.71)"/>
        <g opacity="0.17">
            <path fill="#fff" d="M21.92.65v43a21.48,21.48,0,1,0,0-43Z"/>
        </g>
        <path fill="#fff" d="M33.3,29.05l-3.68-3.68a1.91,1.91,0,0,0-2.7.05l-1.86,1.85-.36-.2a18.55,18.55,0,0,1-4.46-3.23A18.56,18.56,0,0,1,17,19.37l-.2-.35,1.24-1.25.61-.61a1.92,1.92,0,0,0,.05-2.71L15,10.77a1.92,1.92,0,0,0-2.7.05l-1,1,0,0a6,6,0,0,0-.86,1.5,6.46,6.46,0,0,0-.38,1.53c-.48,4,1.36,7.71,6.35,12.71C23.34,34.55,28.91,34,29.15,34a6,6,0,0,0,1.53-.39,5.66,5.66,0,0,0,1.5-.85l0,0,1.06-1A1.91,1.91,0,0,0,33.3,29.05Z"/>
    </symbol>
</svg>
